<svg xmlns="http://www.w3.org/2000/svg" viewBox="0 0 100 100" fill="none">
  <circle cx="50" cy="50" r="48" fill="#10b981"/>
  <path d="M50 30c-8 0-15 4-18 10-2-1-4-1-6 0-4 2-6 7-4 11 1 3 4 5 7 5h42c3 0 6-2 7-5 2-4 0-9-4-11-2-1-4-1-6 0-3-6-10-10-18-10z" fill="white"/>
  <path d="M32 56h36v14c0 3-3 6-6 6H38c-3 0-6-3-6-6V56z" fill="white"/>
  <rect x="40" y="60" width="4" height="10" rx="2" fill="#10b981"/>
  <rect x="48" y="60" width="4" height="10" rx="2" fill="#10b981"/>
  <rect x="56" y="60" width="4" height="10" rx="2" fill="#10b981"/>
</svg>